<?xml version="1.0" encoding="UTF-8" standalone="no"?>
<!DOCTYPE svg PUBLIC "-//W3C//DTD SVG 1.1//EN" "http://www.w3.org/Graphics/SVG/1.1/DTD/svg11.dtd">
<svg xmlns="http://www.w3.org/2000/svg" version="1.1" viewBox="0.00 0.00 430.00 264.00">
<g stroke-width="2.00" fill="none" stroke-linecap="butt">
<path stroke="#fbecac" vector-effect="non-scaling-stroke" d="
  M 211.13 155.13
  Q 211.09 157.56 213.79 156.94
  Q 215.72 156.50 215.76 156.49
  C 236.92 152.98 254.58 140.32 263.54 120.95
  Q 275.08 96.04 264.19 68.28
  A 0.77 0.77 0.0 0 0 262.72 68.38
  Q 259.30 83.04 246.98 90.05
  C 228.23 100.71 204.60 90.88 198.82 70.60
  Q 197.48 65.88 197.49 56.77
  Q 197.51 44.36 197.48 32.12
  A 0.72 0.71 0.0 0 0 196.76 31.41
  L 144.48 31.50
  A 0.58 0.58 0.0 0 0 143.90 32.07
  Q 143.66 58.39 143.80 84.71
  C 143.86 96.48 143.71 102.70 146.32 111.72
  A 0.47 0.46 47.4 0 0 147.20 111.76
  C 160.52 76.86 211.20 86.28 211.23 123.75
  Q 211.25 146.03 211.13 155.13"
/>
<path stroke="#afd1f7" vector-effect="non-scaling-stroke" d="
  M 252.83 72.81
  Q 256.41 66.00 255.55 57.04
  C 255.21 53.56 253.79 52.38 251.43 50.06
  Q 232.60 31.55 206.16 31.37
  A 0.69 0.68 -0.4 0 0 205.47 32.06
  Q 205.54 41.97 205.49 51.91
  Q 205.42 64.95 206.84 69.47
  C 213.56 90.89 242.65 92.16 252.83 72.81"
/>
<path stroke="#afd1f7" vector-effect="non-scaling-stroke" d="
  M 154.12 128.65
  C 164.93 145.10 182.86 155.89 202.65 156.92
  Q 203.22 156.95 203.23 156.38
  Q 203.32 142.09 203.25 127.80
  Q 203.21 119.18 202.23 115.81
  C 196.76 96.91 172.13 91.61 159.34 106.34
  Q 152.10 114.68 153.34 126.50
  Q 153.46 127.66 154.12 128.65"
/>
<path stroke="#afd1f7" vector-effect="non-scaling-stroke" d="
  M 149.08 219.27
  Q 148.72 218.07 149.97 218.07
  L 183.98 218.04
  A 0.89 0.88 3.7 0 0 184.86 217.27
  C 186.95 202.00 183.70 185.58 167.14 180.94
  C 152.76 176.91 137.26 182.81 131.41 197.21
  C 127.88 205.92 127.69 217.39 130.98 226.26
  C 138.56 246.70 164.80 246.30 181.77 239.94
  A 0.73 0.72 77.6 0 0 182.23 239.21
  Q 181.71 231.73 178.66 224.87
  A 1.70 1.69 -23.2 0 0 176.46 224.00
  C 168.82 227.17 152.30 230.09 149.08 219.27"
/>
<path stroke="#afd1f7" vector-effect="non-scaling-stroke" d="
  M 212.40 219.01
  A 0.67 0.67 0.0 0 1 213.02 218.09
  L 247.30 218.04
  A 1.01 1.00 4.9 0 0 248.28 217.22
  C 250.64 204.42 247.86 188.88 235.29 182.64
  C 223.67 176.86 206.90 179.73 198.81 190.31
  C 189.52 202.46 189.44 225.69 201.29 236.44
  C 211.88 246.04 232.59 245.15 245.32 239.89
  Q 245.78 239.70 245.75 239.21
  Q 245.26 231.59 242.04 224.68
  A 1.46 1.45 -23.8 0 0 240.15 223.95
  C 231.61 227.50 216.85 230.10 212.40 219.01"
/>
<path stroke="#afd1f7" vector-effect="non-scaling-stroke" d="
  M 383.44 200.93
  Q 383.59 203.12 381.41 202.89
  C 367.46 201.42 349.16 205.78 350.10 223.79
  C 351.41 248.97 385.38 245.14 401.75 239.66
  Q 402.23 239.49 402.24 238.99
  Q 402.26 224.87 402.27 210.67
  Q 402.28 199.58 400.74 194.90
  C 394.44 175.87 369.86 178.18 354.48 183.44
  A 0.66 0.66 0.0 0 0 354.04 184.05
  Q 353.90 191.40 357.48 197.76
  A 1.07 1.07 0.0 0 0 358.81 198.22
  C 364.45 195.93 375.37 194.05 380.92 197.44
  Q 383.29 198.89 383.44 200.93"
/>
<path stroke="#afd1f7" vector-effect="non-scaling-stroke" d="
  M 53.26 197.52
  C 64.19 195.26 65.96 202.82 65.90 211.50
  Q 65.79 226.42 65.58 241.41
  A 0.86 0.85 6.1 0 0 66.27 242.26
  Q 75.72 244.04 85.14 242.17
  A 0.65 0.65 0.0 0 0 85.67 241.53
  Q 85.68 223.21 85.56 204.89
  C 85.55 203.03 85.09 201.12 84.80 199.37
  Q 84.54 197.81 86.11 197.55
  Q 98.56 195.52 98.75 207.01
  Q 99.04 224.20 98.99 241.52
  A 0.71 0.69 -84.5 0 0 99.55 242.21
  Q 108.98 244.05 118.39 242.20
  Q 119.03 242.08 119.03 241.43
  Q 119.14 226.24 118.97 211.10
  Q 118.82 198.29 117.05 193.69
  C 110.94 177.79 89.29 177.72 75.78 183.56
  A 1.20 1.20 0.0 0 1 74.82 183.56
  C 61.93 178.10 46.39 179.32 33.55 183.71
  A 1.91 1.91 0.0 0 0 32.25 185.52
  L 32.23 241.48
  A 0.87 0.87 0.0 0 0 32.96 242.34
  Q 42.27 243.84 51.56 242.33
  Q 52.21 242.23 52.21 241.57
  L 52.23 198.77
  A 1.29 1.27 -5.8 0 1 53.26 197.52"
/>
<path stroke="#afd1f7" vector-effect="non-scaling-stroke" d="
  M 339.01 182.45
  A 2.12 2.12 0.0 0 0 336.89 180.33
  L 321.13 180.33
  A 2.12 2.12 0.0 0 0 319.01 182.45
  L 319.01 240.75
  A 2.12 2.12 0.0 0 0 321.13 242.87
  L 336.89 242.87
  A 2.12 2.12 0.0 0 0 339.01 240.75
  L 339.01 182.45"
/>
<path stroke="#afd1f7" vector-effect="non-scaling-stroke" d="
  M 292.89 197.96
  L 308.31 197.93
  A 1.81 1.80 3.6 0 0 310.10 196.36
  Q 310.98 189.39 310.08 182.43
  A 1.37 1.36 86.1 0 0 308.73 181.24
  L 255.53 181.23
  A 1.10 1.09 -85.4 0 0 254.45 182.15
  Q 253.20 189.31 254.30 196.50
  A 1.71 1.71 0.0 0 0 255.99 197.95
  L 271.73 197.94
  A 0.54 0.53 90.0 0 1 272.26 198.48
  L 272.24 241.52
  A 0.69 0.69 0.0 0 0 272.80 242.20
  Q 282.28 244.04 291.74 242.13
  Q 292.23 242.03 292.23 241.53
  L 292.24 198.61
  A 0.65 0.65 0.0 0 1 292.89 197.96"
/>
<path stroke="#fbecac" vector-effect="non-scaling-stroke" d="
  M 195.96 70.09
  A 17.74 17.74 0.0 0 0 178.22 52.35
  A 17.74 17.74 0.0 0 0 160.48 70.09
  A 17.74 17.74 0.0 0 0 178.22 87.83
  A 17.74 17.74 0.0 0 0 195.96 70.09"
/>
<path stroke="#fbecac" vector-effect="non-scaling-stroke" d="
  M 248.24 114.25
  A 17.72 17.72 0.0 0 0 230.52 96.53
  A 17.72 17.72 0.0 0 0 212.80 114.25
  A 17.72 17.72 0.0 0 0 230.52 131.97
  A 17.72 17.72 0.0 0 0 248.24 114.25"
/>
<path stroke="#eeafab" vector-effect="non-scaling-stroke" d="
  M 187.98 70.09
  A 9.79 9.79 0.0 0 0 178.19 60.30
  A 9.79 9.79 0.0 0 0 168.40 70.09
  A 9.79 9.79 0.0 0 0 178.19 79.88
  A 9.79 9.79 0.0 0 0 187.98 70.09"
/>
<path stroke="#afd1f7" vector-effect="non-scaling-stroke" d="
  M 240.32 114.30
  A 9.80 9.80 0.0 0 0 230.52 104.50
  A 9.80 9.80 0.0 0 0 220.72 114.30
  A 9.80 9.80 0.0 0 0 230.52 124.10
  A 9.80 9.80 0.0 0 0 240.32 114.30"
/>
<path stroke="#afd1f7" vector-effect="non-scaling-stroke" d="
  M 148.67 204.46
  L 167.31 204.50
  A 0.16 0.16 0.0 0 0 167.47 204.34
  L 167.47 204.24
  A 9.48 9.38 0.1 0 0 158.01 194.84
  L 158.01 194.84
  A 9.48 9.38 0.1 0 0 148.51 204.20
  L 148.51 204.30
  A 0.16 0.16 0.0 0 0 148.67 204.46"
/>
<path stroke="#afd1f7" vector-effect="non-scaling-stroke" d="
  M 212.23 204.46
  L 230.83 204.52
  A 0.16 0.16 0.0 0 0 230.99 204.36
  L 230.99 204.27
  A 9.46 9.43 0.2 0 0 221.57 194.81
  L 221.57 194.81
  A 9.46 9.43 0.2 0 0 212.07 204.21
  L 212.07 204.30
  A 0.16 0.16 0.0 0 0 212.23 204.46"
/>
<path stroke="#afd1f7" vector-effect="non-scaling-stroke" d="
  M 384.12 227.32
  L 383.91 216.42
  A 1.29 1.29 0.0 0 0 382.60 215.16
  L 376.18 215.28
  A 8.89 6.42 -1.1 0 0 367.42 221.87
  L 367.43 222.51
  A 8.89 6.42 -1.1 0 0 376.44 228.76
  L 382.86 228.63
  A 1.29 1.29 0.0 0 0 384.12 227.32"
/>
</g>
<path fill="#ffffff" d="
  M 0.00 0.00
  L 430.00 0.00
  L 430.00 264.00
  L 0.00 264.00
  L 0.00 0.00
  Z
  M 211.13 155.13
  Q 211.09 157.56 213.79 156.94
  Q 215.72 156.50 215.76 156.49
  C 236.92 152.98 254.58 140.32 263.54 120.95
  Q 275.08 96.04 264.19 68.28
  A 0.77 0.77 0.0 0 0 262.72 68.38
  Q 259.30 83.04 246.98 90.05
  C 228.23 100.71 204.60 90.88 198.82 70.60
  Q 197.48 65.88 197.49 56.77
  Q 197.51 44.36 197.48 32.12
  A 0.72 0.71 0.0 0 0 196.76 31.41
  L 144.48 31.50
  A 0.58 0.58 0.0 0 0 143.90 32.07
  Q 143.66 58.39 143.80 84.71
  C 143.86 96.48 143.71 102.70 146.32 111.72
  A 0.47 0.46 47.4 0 0 147.20 111.76
  C 160.52 76.86 211.20 86.28 211.23 123.75
  Q 211.25 146.03 211.13 155.13
  Z
  M 252.83 72.81
  Q 256.41 66.00 255.55 57.04
  C 255.21 53.56 253.79 52.38 251.43 50.06
  Q 232.60 31.55 206.16 31.37
  A 0.69 0.68 -0.4 0 0 205.47 32.06
  Q 205.54 41.97 205.49 51.91
  Q 205.42 64.95 206.84 69.47
  C 213.56 90.89 242.65 92.16 252.83 72.81
  Z
  M 154.12 128.65
  C 164.93 145.10 182.86 155.89 202.65 156.92
  Q 203.22 156.95 203.23 156.38
  Q 203.32 142.09 203.25 127.80
  Q 203.21 119.18 202.23 115.81
  C 196.76 96.91 172.13 91.61 159.34 106.34
  Q 152.10 114.68 153.34 126.50
  Q 153.46 127.66 154.12 128.65
  Z
  M 149.08 219.27
  Q 148.72 218.07 149.97 218.07
  L 183.98 218.04
  A 0.89 0.88 3.7 0 0 184.86 217.27
  C 186.95 202.00 183.70 185.58 167.14 180.94
  C 152.76 176.91 137.26 182.81 131.41 197.21
  C 127.88 205.92 127.69 217.39 130.98 226.26
  C 138.56 246.70 164.80 246.30 181.77 239.94
  A 0.73 0.72 77.6 0 0 182.23 239.21
  Q 181.71 231.73 178.66 224.87
  A 1.70 1.69 -23.2 0 0 176.46 224.00
  C 168.82 227.17 152.30 230.09 149.08 219.27
  Z
  M 212.40 219.01
  A 0.67 0.67 0.0 0 1 213.02 218.09
  L 247.30 218.04
  A 1.01 1.00 4.9 0 0 248.28 217.22
  C 250.64 204.42 247.86 188.88 235.29 182.64
  C 223.67 176.86 206.90 179.73 198.81 190.31
  C 189.52 202.46 189.44 225.69 201.29 236.44
  C 211.88 246.04 232.59 245.15 245.32 239.89
  Q 245.78 239.70 245.75 239.21
  Q 245.26 231.59 242.04 224.68
  A 1.46 1.45 -23.8 0 0 240.15 223.95
  C 231.61 227.50 216.85 230.10 212.40 219.01
  Z
  M 383.44 200.93
  Q 383.59 203.12 381.41 202.89
  C 367.46 201.42 349.16 205.78 350.10 223.79
  C 351.41 248.97 385.38 245.14 401.75 239.66
  Q 402.23 239.49 402.24 238.99
  Q 402.26 224.87 402.27 210.67
  Q 402.28 199.58 400.74 194.90
  C 394.44 175.87 369.86 178.18 354.48 183.44
  A 0.66 0.66 0.0 0 0 354.04 184.05
  Q 353.90 191.40 357.48 197.76
  A 1.07 1.07 0.0 0 0 358.81 198.22
  C 364.45 195.93 375.37 194.05 380.92 197.44
  Q 383.29 198.89 383.44 200.93
  Z
  M 53.26 197.52
  C 64.19 195.26 65.96 202.82 65.90 211.50
  Q 65.79 226.42 65.58 241.41
  A 0.86 0.85 6.1 0 0 66.27 242.26
  Q 75.72 244.04 85.14 242.17
  A 0.65 0.65 0.0 0 0 85.67 241.53
  Q 85.68 223.21 85.56 204.89
  C 85.55 203.03 85.09 201.12 84.80 199.37
  Q 84.54 197.81 86.11 197.55
  Q 98.56 195.52 98.75 207.01
  Q 99.04 224.20 98.99 241.52
  A 0.71 0.69 -84.5 0 0 99.55 242.21
  Q 108.98 244.05 118.39 242.20
  Q 119.03 242.08 119.03 241.43
  Q 119.14 226.24 118.97 211.10
  Q 118.82 198.29 117.05 193.69
  C 110.94 177.79 89.29 177.72 75.78 183.56
  A 1.20 1.20 0.0 0 1 74.82 183.56
  C 61.93 178.10 46.39 179.32 33.55 183.71
  A 1.91 1.91 0.0 0 0 32.25 185.52
  L 32.23 241.48
  A 0.87 0.87 0.0 0 0 32.96 242.34
  Q 42.27 243.84 51.56 242.33
  Q 52.21 242.23 52.21 241.57
  L 52.23 198.77
  A 1.29 1.27 -5.8 0 1 53.26 197.52
  Z
  M 339.01 182.45
  A 2.12 2.12 0.0 0 0 336.89 180.33
  L 321.13 180.33
  A 2.12 2.12 0.0 0 0 319.01 182.45
  L 319.01 240.75
  A 2.12 2.12 0.0 0 0 321.13 242.87
  L 336.89 242.87
  A 2.12 2.12 0.0 0 0 339.01 240.75
  L 339.01 182.45
  Z
  M 292.89 197.96
  L 308.31 197.93
  A 1.81 1.80 3.6 0 0 310.10 196.36
  Q 310.98 189.39 310.08 182.43
  A 1.37 1.36 86.1 0 0 308.73 181.24
  L 255.53 181.23
  A 1.10 1.09 -85.4 0 0 254.45 182.15
  Q 253.20 189.31 254.30 196.50
  A 1.71 1.71 0.0 0 0 255.99 197.95
  L 271.73 197.94
  A 0.54 0.53 90.0 0 1 272.26 198.48
  L 272.24 241.52
  A 0.69 0.69 0.0 0 0 272.80 242.20
  Q 282.28 244.04 291.74 242.13
  Q 292.23 242.03 292.23 241.53
  L 292.24 198.61
  A 0.65 0.65 0.0 0 1 292.89 197.96
  Z"
/>
<path fill="#f7d959" d="
  M 211.13 155.13
  Q 211.25 146.03 211.23 123.75
  C 211.20 86.28 160.52 76.86 147.20 111.76
  A 0.47 0.46 47.4 0 1 146.32 111.72
  C 143.71 102.70 143.86 96.48 143.80 84.71
  Q 143.66 58.39 143.90 32.07
  A 0.58 0.58 0.0 0 1 144.48 31.50
  L 196.76 31.41
  A 0.72 0.71 -0.0 0 1 197.48 32.12
  Q 197.51 44.36 197.49 56.77
  Q 197.48 65.88 198.82 70.60
  C 204.60 90.88 228.23 100.71 246.98 90.05
  Q 259.30 83.04 262.72 68.38
  A 0.77 0.77 0.0 0 1 264.19 68.28
  Q 275.08 96.04 263.54 120.95
  C 254.58 140.32 236.92 152.98 215.76 156.49
  Q 215.72 156.50 213.79 156.94
  Q 211.09 157.56 211.13 155.13
  Z
  M 195.96 70.09
  A 17.74 17.74 0.0 0 0 178.22 52.35
  A 17.74 17.74 0.0 0 0 160.48 70.09
  A 17.74 17.74 0.0 0 0 178.22 87.83
  A 17.74 17.74 0.0 0 0 195.96 70.09
  Z
  M 248.24 114.25
  A 17.72 17.72 0.0 0 0 230.52 96.53
  A 17.72 17.72 0.0 0 0 212.80 114.25
  A 17.72 17.72 0.0 0 0 230.52 131.97
  A 17.72 17.72 0.0 0 0 248.24 114.25
  Z"
/>
<path fill="#5ea3ef" d="
  M 252.83 72.81
  C 242.65 92.16 213.56 90.89 206.84 69.47
  Q 205.42 64.95 205.49 51.91
  Q 205.54 41.97 205.47 32.06
  A 0.69 0.68 -0.4 0 1 206.16 31.37
  Q 232.60 31.55 251.43 50.06
  C 253.79 52.38 255.21 53.56 255.55 57.04
  Q 256.41 66.00 252.83 72.81
  Z"
/>
<path fill="#ffffff" d="
  M 195.96 70.09
  A 17.74 17.74 0.0 0 1 178.22 87.83
  A 17.74 17.74 0.0 0 1 160.48 70.09
  A 17.74 17.74 0.0 0 1 178.22 52.35
  A 17.74 17.74 0.0 0 1 195.96 70.09
  Z
  M 187.98 70.09
  A 9.79 9.79 0.0 0 0 178.19 60.30
  A 9.79 9.79 0.0 0 0 168.40 70.09
  A 9.79 9.79 0.0 0 0 178.19 79.88
  A 9.79 9.79 0.0 0 0 187.98 70.09
  Z"
/>
<circle fill="#dd5e56" cx="178.19" cy="70.09" r="9.79"/>
<path fill="#ffffff" d="
  M 248.24 114.25
  A 17.72 17.72 0.0 0 1 230.52 131.97
  A 17.72 17.72 0.0 0 1 212.80 114.25
  A 17.72 17.72 0.0 0 1 230.52 96.53
  A 17.72 17.72 0.0 0 1 248.24 114.25
  Z
  M 240.32 114.30
  A 9.80 9.80 0.0 0 0 230.52 104.50
  A 9.80 9.80 0.0 0 0 220.72 114.30
  A 9.80 9.80 0.0 0 0 230.52 124.10
  A 9.80 9.80 0.0 0 0 240.32 114.30
  Z"
/>
<path fill="#5ea3ef" d="
  M 202.65 156.92
  C 182.86 155.89 164.93 145.10 154.12 128.65
  Q 153.46 127.66 153.34 126.50
  Q 152.10 114.68 159.34 106.34
  C 172.13 91.61 196.76 96.91 202.23 115.81
  Q 203.21 119.18 203.25 127.80
  Q 203.32 142.09 203.23 156.38
  Q 203.22 156.95 202.65 156.92
  Z"
/>
<circle fill="#5ea3ef" cx="230.52" cy="114.30" r="9.80"/>
<path fill="#5ea3ef" d="
  M 149.08 219.27
  C 152.30 230.09 168.82 227.17 176.46 224.00
  A 1.70 1.69 -23.2 0 1 178.66 224.87
  Q 181.71 231.73 182.23 239.21
  A 0.73 0.72 77.6 0 1 181.77 239.94
  C 164.80 246.30 138.56 246.70 130.98 226.26
  C 127.69 217.39 127.88 205.92 131.41 197.21
  C 137.26 182.81 152.76 176.91 167.14 180.94
  C 183.70 185.58 186.95 202.00 184.86 217.27
  A 0.89 0.88 3.7 0 1 183.98 218.04
  L 149.97 218.07
  Q 148.72 218.07 149.08 219.27
  Z
  M 148.67 204.46
  L 167.31 204.50
  A 0.16 0.16 0.0 0 0 167.47 204.34
  L 167.47 204.24
  A 9.48 9.38 0.1 0 0 158.01 194.84
  L 158.01 194.84
  A 9.48 9.38 0.1 0 0 148.51 204.20
  L 148.51 204.30
  A 0.16 0.16 0.0 0 0 148.67 204.46
  Z"
/>
<path fill="#5ea3ef" d="
  M 212.40 219.01
  C 216.85 230.10 231.61 227.50 240.15 223.95
  A 1.46 1.45 -23.8 0 1 242.04 224.68
  Q 245.26 231.59 245.75 239.21
  Q 245.78 239.70 245.32 239.89
  C 232.59 245.15 211.88 246.04 201.29 236.44
  C 189.44 225.69 189.52 202.46 198.81 190.31
  C 206.90 179.73 223.67 176.86 235.29 182.64
  C 247.86 188.88 250.64 204.42 248.28 217.22
  A 1.01 1.00 4.9 0 1 247.30 218.04
  L 213.02 218.09
  A 0.67 0.67 0.0 0 0 212.40 219.01
  Z
  M 212.23 204.46
  L 230.83 204.52
  A 0.16 0.16 0.0 0 0 230.99 204.36
  L 230.99 204.27
  A 9.46 9.43 0.2 0 0 221.57 194.81
  L 221.57 194.81
  A 9.46 9.43 0.2 0 0 212.07 204.21
  L 212.07 204.30
  A 0.16 0.16 0.0 0 0 212.23 204.46
  Z"
/>
<path fill="#5ea3ef" d="
  M 383.44 200.93
  Q 383.29 198.89 380.92 197.44
  C 375.37 194.05 364.45 195.93 358.81 198.22
  A 1.07 1.07 0.0 0 1 357.48 197.76
  Q 353.90 191.40 354.04 184.05
  A 0.66 0.66 0.0 0 1 354.48 183.44
  C 369.86 178.18 394.44 175.87 400.74 194.90
  Q 402.28 199.58 402.27 210.67
  Q 402.26 224.87 402.24 238.99
  Q 402.23 239.49 401.75 239.66
  C 385.38 245.14 351.41 248.97 350.10 223.79
  C 349.16 205.78 367.46 201.42 381.41 202.89
  Q 383.59 203.12 383.44 200.93
  Z
  M 384.12 227.32
  L 383.91 216.42
  A 1.29 1.29 0.0 0 0 382.60 215.16
  L 376.18 215.28
  A 8.89 6.42 -1.1 0 0 367.42 221.87
  L 367.43 222.51
  A 8.89 6.42 -1.1 0 0 376.44 228.76
  L 382.86 228.63
  A 1.29 1.29 0.0 0 0 384.12 227.32
  Z"
/>
<path fill="#5ea3ef" d="
  M 53.26 197.52
  A 1.29 1.27 -5.8 0 0 52.23 198.77
  L 52.21 241.57
  Q 52.21 242.23 51.56 242.33
  Q 42.27 243.84 32.96 242.34
  A 0.87 0.87 0.0 0 1 32.23 241.48
  L 32.25 185.52
  A 1.91 1.91 0.0 0 1 33.55 183.71
  C 46.39 179.32 61.93 178.10 74.82 183.56
  A 1.20 1.20 0.0 0 0 75.78 183.56
  C 89.29 177.72 110.94 177.79 117.05 193.69
  Q 118.82 198.29 118.97 211.10
  Q 119.14 226.24 119.03 241.43
  Q 119.03 242.08 118.39 242.20
  Q 108.98 244.05 99.55 242.21
  A 0.71 0.69 -84.5 0 1 98.99 241.52
  Q 99.04 224.20 98.75 207.01
  Q 98.56 195.52 86.11 197.55
  Q 84.54 197.81 84.80 199.37
  C 85.09 201.12 85.55 203.03 85.56 204.89
  Q 85.68 223.21 85.67 241.53
  A 0.65 0.65 0.0 0 1 85.14 242.17
  Q 75.72 244.04 66.27 242.26
  A 0.86 0.85 6.1 0 1 65.58 241.41
  Q 65.79 226.42 65.90 211.50
  C 65.96 202.82 64.19 195.26 53.26 197.52
  Z"
/>
<rect fill="#5ea3ef" x="319.01" y="180.33" width="20.00" height="62.54" rx="2.12"/>
<path fill="#5ea3ef" d="
  M 292.24 198.61
  L 292.23 241.53
  Q 292.23 242.03 291.74 242.13
  Q 282.28 244.04 272.80 242.20
  A 0.69 0.69 0.0 0 1 272.24 241.52
  L 272.26 198.48
  A 0.54 0.53 90.0 0 0 271.73 197.94
  L 255.99 197.95
  A 1.71 1.71 0.0 0 1 254.30 196.50
  Q 253.20 189.31 254.45 182.15
  A 1.10 1.09 -85.4 0 1 255.53 181.23
  L 308.73 181.24
  A 1.37 1.36 86.1 0 1 310.08 182.43
  Q 310.98 189.39 310.10 196.36
  A 1.81 1.80 3.6 0 1 308.31 197.93
  L 292.89 197.96
  A 0.65 0.65 0.0 0 0 292.24 198.61
  Z"
/>
<path fill="#ffffff" d="
  M 148.67 204.46
  A 0.16 0.16 0.0 0 1 148.51 204.30
  L 148.51 204.20
  A 9.48 9.38 0.1 0 1 158.01 194.84
  L 158.01 194.84
  A 9.48 9.38 0.1 0 1 167.47 204.24
  L 167.47 204.34
  A 0.16 0.16 0.0 0 1 167.31 204.50
  L 148.67 204.46
  Z"
/>
<path fill="#ffffff" d="
  M 212.23 204.46
  A 0.16 0.16 0.0 0 1 212.07 204.30
  L 212.07 204.21
  A 9.46 9.43 0.2 0 1 221.57 194.81
  L 221.57 194.81
  A 9.46 9.43 0.2 0 1 230.99 204.27
  L 230.99 204.36
  A 0.16 0.16 0.0 0 1 230.83 204.52
  L 212.23 204.46
  Z"
/>
<path fill="#ffffff" d="
  M 384.12 227.32
  A 1.29 1.29 0.0 0 1 382.86 228.63
  L 376.44 228.76
  A 8.89 6.42 -1.1 0 1 367.43 222.51
  L 367.42 221.87
  A 8.89 6.42 -1.1 0 1 376.18 215.28
  L 382.60 215.16
  A 1.29 1.29 0.0 0 1 383.91 216.42
  L 384.12 227.32
  Z"
/>
</svg>
